<?xml version="1.0" encoding="UTF-8" standalone="no"?>
<svg
   xmlns:dc="http://purl.org/dc/elements/1.1/"
   xmlns:cc="http://creativecommons.org/ns#"
   xmlns:rdf="http://www.w3.org/1999/02/22-rdf-syntax-ns#"
   xmlns:svg="http://www.w3.org/2000/svg"
   xmlns="http://www.w3.org/2000/svg"
   xmlns:sodipodi="http://sodipodi.sourceforge.net/DTD/sodipodi-0.dtd"
   xmlns:inkscape="http://www.inkscape.org/namespaces/inkscape"
   width="75.888016mm"
   height="36.476822mm"
   viewBox="0 0 75.888016 36.476822"
   version="1.1"
   id="svg8"
   inkscape:version="1.0.2 (e86c870879, 2021-01-15, custom)"
   sodipodi:docname="depaul.svg">
  <defs
     id="defs2" />
  <sodipodi:namedview
     id="base"
     pagecolor="#ffffff"
     bordercolor="#666666"
     borderopacity="1.0"
     inkscape:pageopacity="0.0"
     inkscape:pageshadow="2"
     inkscape:zoom="1.4"
     inkscape:cx="179.82251"
     inkscape:cy="197.24231"
     inkscape:document-units="mm"
     inkscape:current-layer="layer1"
     inkscape:document-rotation="0"
     showgrid="false"
     inkscape:window-width="1566"
     inkscape:window-height="1208"
     inkscape:window-x="2720"
     inkscape:window-y="135"
     inkscape:window-maximized="0" />
  <metadata
     id="metadata5">
    <rdf:RDF>
      <cc:Work
         rdf:about="">
        <dc:format>image/svg+xml</dc:format>
        <dc:type
           rdf:resource="http://purl.org/dc/dcmitype/StillImage" />
        <dc:title></dc:title>
      </cc:Work>
    </rdf:RDF>
  </metadata>
  <g
     inkscape:label="Layer 1"
     inkscape:groupmode="layer"
     id="layer1"
     transform="translate(-67.780734,-68.158753)">
    <path
       style="fill:#fed136;stroke-width:0.264583"
       d="m 110.06667,103.34389 c 0,-0.93457 -0.13466,-1.52627 -0.39688,-1.74389 -0.21828,-0.18116 -0.39687,-0.50827 -0.39687,-0.72693 0,-0.30296 0.19401,-0.35874 0.81541,-0.23447 0.44847,0.0897 1.05369,0.0356 1.34492,-0.1203 0.70663,-0.37818 1.71363,0.42602 1.24321,0.99283 -0.20963,0.25259 -0.39667,0.27872 -0.62699,0.0876 -0.70945,-0.58879 -1.18905,-0.001 -1.18905,1.45651 0,0.99912 -0.11336,1.44209 -0.39688,1.55089 -0.32228,0.12367 -0.39687,-0.11358 -0.39687,-1.26221 z m -5.11125,0.97981 c -0.12624,-0.20425 -0.25143,-3.37236 -0.19911,-5.038799 0.0108,-0.34447 0.18592,-0.59532 0.41557,-0.59532 0.21828,0 0.38277,0.0893 0.36554,0.19844 -0.0172,0.10914 0.001,0.3175 0.0404,0.46302 0.0394,0.14552 0.0833,0.62177 0.0975,1.058339 0.0169,0.51959 0.14963,0.76769 0.38436,0.71832 0.19721,-0.0415 0.52464,0.0624 0.7276,0.23083 0.38175,0.31683 0.38743,0.30781 0.4723,-0.75072 0.0204,-0.25466 0.10917,-0.58208 0.19724,-0.727599 0.0881,-0.14552 0.12654,-0.47294 0.0855,-0.7276 -0.0863,-0.53536 0.35998,-0.63073 0.55638,-0.11892 0.0726,0.18927 0.16128,1.432509 0.197,2.762779 0.0571,2.12651 0.008,2.4335 -0.40494,2.54153 -0.25843,0.0676 -0.47438,0.10426 -0.47987,0.0815 -0.005,-0.0228 -0.0775,-0.51762 -0.15994,-1.09971 -0.17794,-1.25587 -0.0786,-1.11825 -0.8884,-1.2309 -0.6025,-0.0838 -0.66261,-0.004 -0.67439,0.89987 -0.0128,0.98086 -0.45433,1.78535 -0.7327,1.33494 z m 16.65647,-0.36152 c -0.63373,-0.49849 -0.7347,-0.51049 -1.11291,-0.13229 -0.96635,0.96635 -2.32318,0.19668 -2.18017,-1.23672 0.26167,-2.622659 2.77155,-2.826269 3.28353,-0.26637 0.0917,0.45851 0.39119,1.03678 0.66553,1.28506 1.01895,0.92214 0.45432,1.22368 -0.65598,0.35032 z m -1.49106,-1.03926 c 0.90806,-0.90806 0.50716,-2.33778 -0.43602,-1.55501 -0.50559,0.4196 -0.94489,1.51169 -0.74088,1.8418 0.23376,0.37822 0.6015,0.28861 1.1769,-0.28679 z m 4.05411,1.38157 c -1.0886,-0.17087 -1.22605,-0.65344 -0.97755,-3.43197 0.17897,-2.001029 0.31977,-2.583659 0.62761,-2.596969 0.69061,-0.0299 0.74183,0.11909 0.39145,1.13829 -0.37719,1.097179 -0.20023,1.381109 0.86532,1.388359 0.69133,0.005 0.76721,0.32577 0.19017,0.80466 -0.33458,0.27768 -0.46699,0.25166 -0.76022,-0.14935 -0.34272,-0.4687 -0.36071,-0.46776 -0.51671,0.0269 -0.0889,0.28187 -0.0663,0.86967 0.0501,1.30624 0.15921,0.59688 0.38785,0.81451 0.92185,0.87747 0.39057,0.046 0.71012,0.18098 0.71012,0.29987 0,0.27969 -0.76802,0.45175 -1.50214,0.33652 z m -0.0854,-5.350319 c 0,-0.14552 -0.12609,-0.26459 -0.2802,-0.26459 -0.1541,0 -0.20661,0.11907 -0.11667,0.26459 0.0899,0.14552 0.21603,0.26458 0.2802,0.26458 0.0642,0 0.11667,-0.11906 0.11667,-0.26458 z m 2.48763,5.249739 c -0.26611,-0.43058 0.16652,-0.69922 1.08415,-0.6732 1.3167,0.0373 1.7702,-0.49444 0.77079,-0.9038 -0.42388,-0.17362 -0.94734,-0.32687 -1.16324,-0.34056 -0.2159,-0.0137 -0.4277,-0.20579 -0.47067,-0.42688 -0.13704,-0.70518 0.57692,-1.35804 1.53666,-1.40519 0.76927,-0.0378 0.92776,0.0518 1.00057,0.56537 0.0771,0.54402 0.0307,0.57539 -0.42797,0.28897 -0.51734,-0.32308 -1.37833,-0.17945 -1.37833,0.22993 0,0.12085 0.40536,0.36631 0.9008,0.54547 1.92322,0.69544 1.31685,2.11455 -0.97724,2.28706 -0.40585,0.0305 -0.79983,-0.0447 -0.87552,-0.16717 z m 12.76177,-0.24173 c -0.63373,-0.49849 -0.73471,-0.51049 -1.11292,-0.13229 -0.94924,0.94924 -2.23607,0.24321 -2.22142,-1.2188 0.0172,-1.72054 1.62678,-2.747909 2.63076,-1.67921 0.30778,0.32761 0.5327,0.70125 0.49984,0.83032 -0.0853,0.33519 0.88495,2.21905 1.14293,2.21905 0.11857,0 0.21558,0.11906 0.21558,0.26458 0,0.41156 -0.39399,0.31478 -1.15477,-0.28365 z m -1.37377,-1.09813 c 0.75167,-1.07317 0.3255,-2.2255 -0.55332,-1.49614 -0.50559,0.4196 -0.94489,1.51169 -0.74088,1.8418 0.26202,0.42394 0.86862,0.26193 1.2942,-0.34566 z m -23.37537,-0.0694 c -0.45045,-0.79816 -0.81901,-1.58198 -0.81901,-1.74183 0,-0.61502 0.69017,-0.0258 1.32292,1.12938 0.73416,1.34034 0.74565,1.33712 2.00192,-0.56123 0.91995,-1.39014 1.11665,-1.08794 0.3783,0.58122 -0.59988,1.35612 -1.17598,2.04366 -1.7124,2.04366 -0.194,0 -0.72128,-0.65303 -1.17173,-1.4512 z m 16.35522,0.85589 c -0.13936,-3.50301 -0.12522,-4.696349 0.0557,-4.696349 0.37452,0 0.76178,0.99201 0.76178,1.951359 0,1.0293 0.35437,1.3793 1.27593,1.26017 0.43367,-0.056 0.65571,0.0782 0.75458,0.45632 0.077,0.29466 0.39464,0.5722 0.70574,0.61676 0.3111,0.0446 0.60247,0.27439 0.64748,0.51074 0.0721,0.37878 -0.053,0.39477 -1.05564,0.13487 -0.6256,-0.16218 -1.29479,-0.44485 -1.48709,-0.62817 -0.48009,-0.45767 -0.55305,-0.4292 -0.841,0.32816 -0.31295,0.82311 -0.78579,0.86138 -0.81743,0.0661 z m 2.82336,-1.49755 c -0.29666,-0.3278 -0.35567,-0.56052 -0.17107,-0.67461 0.155,-0.0958 0.28182,-0.0249 0.28182,0.15743 0,0.18238 0.28343,-0.0526 0.62986,-0.52213 0.51035,-0.69173 0.66112,-0.77226 0.79461,-0.4244 0.20671,0.53868 -0.0446,0.97714 -0.4253,0.74188 -0.15795,-0.0976 -0.21981,-0.0685 -0.13747,0.0648 0.0823,0.13323 -8e-4,0.44818 -0.18493,0.69988 -0.31539,0.43132 -0.36068,0.42886 -0.78752,-0.0428 z m -54.701,-9.496209 c -0.774887,-0.0501 -1.288366,-0.22225 -1.380759,-0.46302 -0.126451,-0.32953 1.012063,-0.38478 8.112831,-0.39369 4.542958,-0.006 13.855862,-0.0301 20.695338,-0.0542 22.53006,-0.0794 37.17396,0.049 37.17396,0.32593 0,0.17026 -8.92391,0.26448 -25.59844,0.27026 -14.07914,0.005 -26.134214,0.0651 -26.789058,0.13383 -1.477176,0.15503 -10.537119,0.28919 -12.213872,0.18086 z m -4.454877,-1.77238 c 0,-0.36381 0.04565,-0.66146 0.101447,-0.66146 0.0558,0 0.158348,0.29765 0.227893,0.66146 0.06955,0.3638 0.0239,0.66145 -0.101447,0.66145 -0.125341,0 -0.227893,-0.29765 -0.227893,-0.66145 z m -1.684667,-0.6092 c -0.456441,-0.67913 -0.581446,-0.71263 -2.563861,-0.68707 -2.087644,0.0269 -2.563041,-0.21215 -1.031109,-0.51853 0.449235,-0.0898 0.744499,-0.28033 0.656143,-0.4233 -0.08836,-0.14296 0.112112,-0.31832 0.445485,-0.38968 0.333374,-0.0714 0.844259,-0.1801 1.1353,-0.24165 0.291042,-0.0615 0.05292,-0.12753 -0.529166,-0.14664 -1.371384,-0.045 -2.101468,-0.45735 -1.176826,-0.66464 0.356213,-0.0799 1.064378,-0.17734 1.573701,-0.21662 l 0.926041,-0.0714 -0.07116,-3.43959 c -0.03914,-1.89177 -0.263874,-5.19575 -0.499411,-7.34218 l -0.428249,-3.90261 h -0.897956 c -0.510338,0 -0.957199,-0.15438 -1.035199,-0.35765 -0.08453,-0.22028 -0.411621,-0.31572 -0.851592,-0.24849 -0.607711,0.0929 -0.645229,0.0653 -0.251327,-0.18466 0.640552,-0.40648 0.579117,-0.79071 -0.132292,-0.82739 -0.53939,-0.0278 -0.545604,-0.0429 -0.06615,-0.16076 0.291042,-0.0715 0.687781,-0.25902 0.881643,-0.41663 0.193861,-0.15761 0.81894,-0.25903 1.389062,-0.22539 0.830197,0.049 1.036587,-0.0301 1.036587,-0.397 0,-0.40933 0.04141,-0.40342 0.38846,0.0554 0.379725,0.50204 0.38865,0.50056 0.396875,-0.0661 0.0046,-0.31884 0.127477,-0.65329 0.272998,-0.74322 0.150061,-0.0927 0.264583,0.12954 0.264583,0.51355 0,0.42545 0.14749,0.67707 0.396875,0.67707 0.218282,0 0.398699,-0.14883 0.400927,-0.33073 0.0027,-0.22048 0.08955,-0.19843 0.260532,0.0661 0.206126,0.31896 0.257275,0.27629 0.260531,-0.21734 0.0022,-0.33781 0.182646,-0.7928 0.400927,-1.01108 0.352778,-0.35278 0.397325,-0.28453 0.400927,0.61421 0.003,0.75023 0.07022,0.9087 0.260531,0.61421 0.221134,-0.34218 0.257039,-0.33533 0.260532,0.0497 0.0045,0.49752 1.056484,0.56968 1.389063,0.0953 0.127147,-0.18137 0.195787,-0.16288 0.198437,0.0534 0.0025,0.20231 0.33794,0.31881 0.863947,0.30003 0.556787,-0.0199 0.673368,-0.0756 0.33073,-0.15797 -0.291042,-0.07 -0.640199,-0.23271 -0.775904,-0.36156 -0.143322,-0.13609 0.07847,-0.13845 0.529167,-0.006 1.401776,0.4131 2.353265,0.9223 3.024861,1.61879 0.363803,0.37728 0.484726,0.44129 0.26872,0.14225 -0.22231,-0.30778 -0.02138,-0.2065 0.463021,0.23338 0.854466,0.77593 1.210251,1.30168 0.458884,0.6781 -0.576291,-0.47828 -0.499565,0.0603 0.170342,1.1957 0.354064,0.60009 0.637502,0.84764 0.754254,0.65873 0.114132,-0.18467 0.33135,0.0395 0.557263,0.57511 0.443554,1.05161 0.459057,7.70085 0.01919,8.23085 -0.152004,0.18316 -0.316814,0.6277 -0.366243,0.98787 -0.04943,0.36018 -0.182338,0.80233 -0.295352,0.98257 -0.143639,0.22907 -0.07345,0.27703 0.233224,0.15935 0.467997,-0.17959 -1.15376,2.08741 -2.048288,2.86323 -0.455729,0.39525 -2.607292,0.87293 -4.845224,1.07571 -0.652293,0.0591 -0.808953,0.20453 -0.879061,0.81602 -0.07291,0.63598 -0.144353,0.6951 -0.491652,0.40686 -0.336683,-0.27942 -0.469467,-0.2509 -0.774584,0.16637 -0.202535,0.27699 -0.370067,0.39155 -0.372296,0.2546 -0.0022,-0.13695 -0.09472,-0.10638 -0.20554,0.068 -0.139152,0.21889 -0.349938,0.0961 -0.681324,-0.39699 z m 4.523425,-1.79961 c -0.08792,-0.0879 -0.316122,-0.0973 -0.507118,-0.0209 -0.211067,0.0845 -0.148372,0.14716 0.159853,0.15985 0.278914,0.0115 0.435184,-0.0511 0.347265,-0.13896 z m -3.185541,-2.94901 c -0.06655,-0.25466 -0.121,-0.0463 -0.121,0.46303 0,0.50932 0.05445,0.71768 0.121,0.46302 0.06655,-0.25467 0.06655,-0.67138 0,-0.92605 z m 5.496951,0.43562 c 0.514387,-0.45164 0.935982,-0.95766 0.936878,-1.12448 9e-4,-0.16683 0.200171,-0.66051 0.442831,-1.09707 0.302174,-0.54363 0.44114,-1.41905 0.441006,-2.77813 -2.07e-4,-2.10147 -0.735685,-5.88734 -1.248378,-6.426 -0.167974,-0.17648 -0.521505,-0.65827 -0.785624,-1.07065 -0.586294,-0.91539 -2.27401,-1.71345 -3.303913,-1.56229 l -0.759798,0.11151 -0.151621,3.48153 c -0.08339,1.91484 -0.165741,5.2377 -0.182997,7.38413 l -0.03138,3.90261 h 1.853872 c 1.696324,0 1.933352,-0.0698 2.78912,-0.82116 z m -6.28636,-5.33041 c -0.06306,-0.32742 -0.114662,-0.0595 -0.114662,0.59532 0,0.65484 0.0516,0.92273 0.114662,0.59531 0.06306,-0.32742 0.06306,-0.86321 0,-1.19063 z m -0.27608,-2.11666 c -0.0734,-0.1819 -0.133452,-0.0331 -0.133452,0.33073 0,0.3638 0.06005,0.51263 0.133452,0.33072 0.0734,-0.1819 0.0734,-0.47955 0,-0.66145 z m 0.670375,-1.05834 c -0.07794,-1.43491 -0.183576,-1.79197 -0.53745,-1.81663 -0.35021,-0.0244 -0.359136,-0.0528 -0.04357,-0.13855 0.307975,-0.0837 0.376844,-0.44725 0.307449,-1.62296 -0.101402,-1.718 -0.551575,-2.53606 -0.608064,-1.10498 -0.02473,0.62656 -0.07215,0.72489 -0.151208,0.31357 -0.06335,-0.32958 -0.202569,-0.54522 -0.309382,-0.47921 -0.292984,0.18108 0.390823,4.48277 0.730594,4.59602 0.162357,0.0541 0.295194,0.48536 0.295194,0.9583 0,0.47294 0.07937,0.93927 0.176389,1.03628 0.247626,0.24763 0.247914,0.24405 0.140048,-1.74184 z m 8.060875,0.52917 c -0.0734,-0.1819 -0.133452,-0.0331 -0.133452,0.33073 0,0.3638 0.06005,0.51263 0.133452,0.33073 0.0734,-0.1819 0.0734,-0.47956 0,-0.66146 z m -6.861056,-5.03507 c -0.05549,-0.61407 -0.10023,-0.0449 -0.09942,1.26476 7.94e-4,1.30968 0.04621,1.81211 0.10089,1.11649 0.05468,-0.69561 0.05402,-1.76717 -0.0015,-2.38125 z m -0.806348,0.28911 c -0.08446,-0.21107 -0.147157,-0.14838 -0.159853,0.15985 -0.01149,0.27891 0.05105,0.43518 0.138965,0.34727 0.08792,-0.0879 0.09732,-0.31613 0.02089,-0.50712 z m 0.0177,-2.51403 c -0.254661,-0.0666 -0.67138,-0.0666 -0.926041,0 -0.254662,0.0666 -0.0463,0.121 0.463021,0.121 0.509323,0 0.717682,-0.0545 0.46302,-0.121 z m 30.587473,18.53791 c 0.083,-0.27288 0.27571,-1.06548 0.42822,-1.76132 0.15251,-0.69584 0.39314,-1.46975 0.53474,-1.71979 0.7331,-1.29455 3.39486,-10.64904 3.84429,-13.51033 0.15638,-0.99564 0.3053,-1.20159 1.11279,-1.53898 0.85138,-0.35573 3.40559,-0.44648 4.23832,-0.15059 0.1819,0.0646 0.32881,0.31314 0.32647,0.55223 -0.005,0.48193 0.81548,4.27167 1.65767,7.65919 0.36835,1.4816 0.62281,2.0849 0.78117,1.85208 0.16351,-0.24039 0.22238,-0.14434 0.19377,0.31615 -0.0226,0.3638 -0.0261,1.07818 -0.008,1.5875 0.0264,0.73359 0.0922,0.84356 0.31683,0.52917 0.23113,-0.32358 0.2612,-0.29387 0.16282,0.16092 -0.0664,0.30678 0.15842,1.676 0.49953,3.04271 0.34111,1.3667 0.6232,2.57989 0.62688,2.69597 0.004,0.11609 -0.73746,0.17562 -1.64697,0.1323 -1.48864,-0.0709 -1.66213,-0.13857 -1.7387,-0.67801 -0.0468,-0.32958 -0.16585,-0.55038 -0.26459,-0.49067 -0.0987,0.0597 -0.20189,-0.38756 -0.22923,-0.99395 -0.0273,-0.60638 -0.17567,-1.43384 -0.32963,-1.83878 l -0.27993,-0.73627 -2.05161,0.14131 c -3.24655,0.2236 -3.03225,0.0846 -3.69443,2.39596 -0.32493,1.1342 -0.64412,2.11551 -0.70929,2.18068 -0.0652,0.0652 -0.84832,0.1644 -1.74032,0.22049 -0.892,0.0561 -1.74785,0.17988 -1.9019,0.27509 -0.17545,0.10844 -0.2237,-0.0123 -0.12914,-0.32306 z m 4.64966,-7.32479 c 0.0102,-0.11773 -0.10047,-0.14046 -0.24599,-0.0505 -0.14552,0.0899 -0.25621,0.42439 -0.24598,0.74322 0.0179,0.5589 0.0268,0.56071 0.24598,0.0505 0.12507,-0.29104 0.23576,-0.62549 0.24599,-0.74322 z m 5.0363,-0.24896 c -0.005,-0.1819 -0.17953,-0.62839 -0.3875,-0.99219 -0.20796,-0.3638 -0.38234,-0.92935 -0.38749,-1.25677 -0.005,-0.32742 -0.12471,-0.59531 -0.26566,-0.59531 -0.14095,0 -0.18912,-0.17501 -0.10704,-0.38891 0.20768,-0.54121 -0.42786,-4.14183 -0.70125,-3.97287 -0.12251,0.0757 -0.36272,0.8202 -0.53381,1.65441 -0.17108,0.83421 -0.39874,1.6358 -0.50591,1.78132 -0.10717,0.14552 -0.35101,0.84137 -0.54186,1.54632 -0.27894,1.03028 -0.28145,1.32225 -0.0128,1.48828 0.26583,0.1643 0.26131,0.2516 -0.0221,0.42676 -0.47723,0.29495 0.54734,0.57825 2.21804,0.61331 0.8476,0.0178 1.25372,-0.0813 1.2474,-0.30435 z m -3.70289,-6.41615 c 0,-0.14552 -0.11542,-0.086 -0.25648,0.13229 -0.14107,0.21828 -0.25648,0.51594 -0.25648,0.66146 0,0.14552 0.11541,0.086 0.25648,-0.13229 0.14106,-0.21828 0.25648,-0.51594 0.25648,-0.66146 z m 12.00381,13.79522 c -0.99508,-0.47535 -1.46912,-0.89203 -1.74665,-1.53529 -0.95698,-2.21813 -1.09259,-3.4885 -1.1181,-10.47401 l -0.0254,-6.94531 h 1.66491 c 0.9157,0 1.68596,0.0298 1.71169,0.0661 0.0257,0.0364 0.11503,3.5307 0.19844,7.76516 0.16255,8.25241 0.17888,8.34483 1.56795,8.87295 0.88249,0.33552 2.3386,-0.17486 2.60118,-0.91175 0.11348,-0.31843 0.20846,-4.03178 0.21108,-8.25188 l 0.005,-7.67292 1.61795,-0.0778 1.61795,-0.0778 0.19391,7.91859 c 0.18574,7.58496 0.1715,7.96923 -0.3378,9.12059 -0.80666,1.82361 -2.19353,2.62608 -4.75989,2.75418 -1.74746,0.0872 -2.23,0.009 -3.40203,-0.55077 z m -25.635279,-0.19108 c -0.260244,-0.42109 -0.06101,-17.5368 0.210315,-18.06786 0.177292,-0.34701 0.165904,-0.4412 -0.0381,-0.31511 -0.39941,0.24684 -0.368176,-0.34131 0.03975,-0.7485 0.516795,-0.51587 1.440204,-0.66302 1.967259,-0.31349 0.264076,0.17512 0.772255,0.33498 1.129285,0.35524 0.35703,0.0203 1.67971,0.29443 2.93928,0.60928 2.19106,0.5477 2.30891,0.61503 2.72429,1.55651 0.23879,0.54122 0.43598,1.21192 0.43821,1.49045 0.003,0.37855 0.0606,0.41726 0.22787,0.15331 0.16718,-0.26373 0.26569,-0.19676 0.38921,0.26458 0.53647,2.00358 -0.1481,4.42811 -1.72126,6.09614 -0.71201,0.75496 -1.17389,0.99185 -2.21485,1.13596 -2.46511,0.34128 -2.68256,0.53095 -2.86316,2.49738 -0.0877,0.95486 -0.1105,2.39654 -0.0507,3.20372 0.0598,0.80718 0.0234,1.60581 -0.081,1.77473 -0.23716,0.38373 -2.886662,0.64699 -3.096382,0.30766 z m 1.487649,-7.24247 c 0.135118,0.0835 0.245669,-0.0484 0.245669,-0.29306 0,-0.36545 -0.07086,-0.38607 -0.396875,-0.1155 -0.218282,0.18115 -0.380662,0.58268 -0.360844,0.89229 0.03425,0.53511 0.04172,0.53331 0.151209,-0.0363 0.06335,-0.32958 0.225727,-0.53092 0.360841,-0.44741 z m -0.702572,-5.17106 -0.204231,-2.24896 -0.222467,1.5875 c -0.140362,1.00159 -0.122989,1.81181 0.04707,2.19526 0.148246,0.33427 0.287374,0.98911 0.309179,1.45521 l 0.03964,0.84744 0.117523,-0.79375 c 0.06464,-0.43656 0.02561,-1.80578 -0.08671,-3.0427 z m 4.184922,2.00555 c -0.0817,-0.13387 0.0305,-0.17471 0.24928,-0.0908 0.55267,0.21208 1.16848,-0.94972 1.37731,-2.59842 0.14475,-1.14285 0.0903,-1.41754 -0.36208,-1.82695 -0.65319,-0.59113 -0.71099,-1.12824 -0.0694,-0.64517 0.4353,0.32777 0.43648,0.31957 0.0198,-0.13683 -0.2754,-0.30162 -0.95174,-0.53433 -1.78594,-0.61449 l -1.34268,-0.12901 v 3.18223 3.18223 l 1.03114,-0.0397 c 0.56712,-0.0218 0.9643,-0.14924 0.88263,-0.28311 z m -2.267703,-1.27795 c -0.0734,-0.1819 -0.133453,-0.0331 -0.133453,0.33073 0,0.3638 0.06005,0.51263 0.133453,0.33073 0.0734,-0.1819 0.0734,-0.47956 0,-0.66146 z m -1.317406,-3.15846 c -0.08446,-0.21107 -0.147156,-0.14838 -0.15985,0.15985 -0.01148,0.27891 0.05104,0.43518 0.138964,0.34727 0.08792,-0.0879 0.09732,-0.31613 0.02088,-0.50712 z M 133.35,79.507291 v -9.3927 h 1.5875 1.5875 v 8.06979 8.06979 h 3.57188 3.57187 v 1.32292 1.32291 H 138.50938 133.35 Z m -48.418748,8.6131 c 0,-0.1533 0.238125,-0.27872 0.529167,-0.27872 0.291042,0 0.529167,-0.11906 0.529167,-0.26458 0,-0.14553 0.178593,-0.26459 0.396875,-0.26459 0.218281,0 0.396875,-0.11906 0.396875,-0.26458 0,-0.14552 -0.191333,-0.26458 -0.425183,-0.26458 -0.288479,0 -0.370666,-0.14207 -0.255622,-0.44187 0.09347,-0.24359 0.01713,-0.53859 -0.17013,-0.65741 -0.247426,-0.157 -0.209687,-0.21664 0.138945,-0.21959 0.26325,-0.002 0.405052,-0.12311 0.315115,-0.26863 -0.08994,-0.14553 -0.05131,-0.26459 0.08583,-0.26459 0.137145,0 0.305566,-0.29405 0.374269,-0.65345 0.0687,-0.3594 0.02305,-0.5905 -0.101447,-0.51355 -0.291343,0.18006 -0.295802,-0.50024 -0.0054,-0.8306 0.121505,-0.13825 0.169921,-0.80592 0.10759,-1.48373 -0.08156,-0.88685 -0.242399,-1.26612 -0.573696,-1.35276 -0.571749,-0.14952 -0.654707,-1.94773 -0.09968,-2.16071 0.280237,-0.10754 0.321492,-0.53793 0.184964,-1.92962 -0.09665,-0.98516 -0.273206,-1.91572 -0.392353,-2.06792 -0.119146,-0.15219 -0.167713,-0.66323 -0.107927,-1.13563 0.07661,-0.60533 -0.04424,-1.01187 -0.409306,-1.37694 -0.615231,-0.61523 -0.659887,-0.82042 -0.134686,-0.61888 0.265729,0.10197 0.455101,-0.12379 0.617302,-0.73591 0.220047,-0.83043 0.24579,-0.84679 0.432356,-0.27478 0.225145,0.6903 1.126704,0.71908 1.667459,0.0532 0.24455,-0.30112 0.324344,-0.31252 0.330729,-0.0472 0.0046,0.19229 0.196402,0.53761 0.426164,0.76737 0.354947,0.35495 0.911808,0.39271 3.704168,0.25119 l 3.286415,-0.16657 v 1.13221 c 0,1.20906 -0.365234,1.81351 -0.958284,1.58593 -0.200546,-0.077 -0.572992,-0.0482 -0.827654,0.064 -0.708959,0.3122 -0.720675,0.31357 -2.976562,0.34882 l -2.116667,0.0331 v 1.56586 c 0,2.44485 -0.105708,2.36838 3.060597,2.21411 l 2.760236,-0.13448 v 0.95538 c 0,0.72655 -0.1109,0.95975 -0.46302,0.97361 -0.603814,0.0238 -1.484996,0.158 -3.088024,0.47039 -0.716148,0.13956 -1.479458,0.18568 -1.696245,0.10249 -0.337248,-0.12941 -0.368907,0.14747 -0.219267,1.9177 0.09619,1.13792 0.17489,2.33647 0.17489,2.66345 0,0.5777 0.06171,0.59119 2.182812,0.47749 3.039491,-0.16293 3.294944,-0.0692 3.421269,1.25546 0.132141,1.38565 -0.07946,1.47328 -4.048524,1.67654 -1.655921,0.0848 -3.695375,0.21903 -4.53212,0.29828 -0.980495,0.0929 -1.521354,0.045 -1.521354,-0.13464 z m 6.35,-2.02937 c 0,-0.0558 -0.386953,-0.0996 -0.859896,-0.0974 -0.584635,0.003 -0.74465,0.0771 -0.499877,0.23215 0.328351,0.20804 1.359773,0.10581 1.359773,-0.13477 z m 2.778125,0.16315 c 0.348917,-0.14994 0.39398,-0.23235 0.132292,-0.24194 -0.218282,-0.008 -0.575469,0.10087 -0.79375,0.24194 -0.483651,0.31256 -0.06591,0.31256 0.661458,0 z m -5.718968,-3.77031 c -0.02234,-1.7967 -0.08114,-2.18649 -0.221167,-1.46608 -0.104907,0.53973 -0.160668,1.25411 -0.123914,1.5875 0.03675,0.3334 0.07675,0.99313 0.08888,1.46608 0.01213,0.47294 0.08158,0.85989 0.15434,0.85989 0.07276,0 0.118599,-1.10133 0.101865,-2.44739 z m 1.617926,-3.10886 c 0.303094,-0.19587 0.20931,-0.25304 -0.396874,-0.24193 -0.436563,0.008 -1.031875,0.11687 -1.322917,0.24193 -0.43238,0.1858 -0.35979,0.23005 0.396875,0.24194 0.509323,0.008 1.104635,-0.10087 1.322916,-0.24194 z m 4.111922,-0.77615 c -0.09592,-0.1552 -0.375735,-0.26837 -0.621808,-0.25149 -0.403357,0.0277 -0.40182,0.0426 0.01561,0.15169 0.254662,0.0666 0.463021,0.25118 0.463021,0.41028 0,0.15911 0.07145,0.21783 0.158787,0.1305 0.08733,-0.0873 0.0803,-0.28577 -0.01561,-0.44098 z m -6.2016,-5.32474 c -0.223469,-0.55946 -0.263808,-0.46879 -0.301174,0.67693 -0.03494,1.07133 -0.08343,1.19713 -0.254981,0.66146 -0.185436,-0.57903 -0.215122,-0.59276 -0.238209,-0.11024 -0.0145,0.30317 0.05807,0.63566 0.161286,0.73887 0.103212,0.10322 0.152683,0.67209 0.109934,1.26416 -0.05214,0.72216 0.01672,1.01812 0.209215,0.89915 0.157818,-0.0975 0.310902,-0.0215 0.340187,0.16901 0.02928,0.19049 0.09341,-0.55359 0.142509,-1.65351 0.0491,-1.09992 -0.02685,-2.29054 -0.168767,-2.64583 z m 3.80947,-0.85379 c 0.873125,0.0303 1.855391,0.12147 2.182813,0.20262 0.327421,0.0812 0.595312,0.0262 0.595312,-0.12206 0,-0.1483 -0.595312,-0.26963 -1.322917,-0.26963 -0.727604,0 -1.322916,-0.11906 -1.322916,-0.26458 0,-0.15119 -0.79375,-0.26458 -1.852084,-0.26458 -1.674009,0 -1.852083,0.0507 -1.852083,0.52772 0,0.4683 0.111733,0.50564 0.992188,0.33159 0.545703,-0.10788 1.706562,-0.17136 2.579687,-0.14108 z m -0.330729,0.16487 c -0.181901,-0.0734 -0.479557,-0.0734 -0.661458,0 -0.181901,0.0734 -0.03307,0.13345 0.330729,0.13345 0.363802,0 0.51263,-0.06 0.330729,-0.13345 z m 13.956772,12.59503 c 0,-0.15411 0.11906,-0.20661 0.26458,-0.11668 0.14552,0.0899 0.26458,0.21603 0.26458,0.2802 0,0.0642 -0.11906,0.11668 -0.26458,0.11668 -0.14552,0 -0.26458,-0.12609 -0.26458,-0.2802 z M 82.699305,73.102561 c -0.143585,-0.37708 -0.113194,-0.40747 0.148112,-0.14811 0.180821,0.17947 0.262115,0.39297 0.180654,0.47443 -0.08146,0.0815 -0.229407,-0.0654 -0.328766,-0.32632 z"
       id="path24" />
  </g>
</svg>
